<svg id="neu_2015" data-name="neu 2015" xmlns="http://www.w3.org/2000/svg" width="400" height="400" viewBox="0 0 400 400"><defs><style>.cls-1,.cls-3,.cls-9{fill:#fff;}.cls-11,.cls-2{fill:#1d1d1b;}.cls-2,.cls-3{fill-rule:evenodd;}.cls-4{fill:#00677f;}.cls-5{fill:#5a130a;}.cls-6{fill:#444;}.cls-7{fill:#003340;}.cls-8{fill:#e6e6e6;}.cls-10,.cls-9{isolation:isolate;}.cls-12{fill:#ea232e;}</style></defs><title>img_icons_sprite_reloaded_svg</title><path class="cls-1" d="M14.82,31.57V36H0V21.18H4.43v7.56L12.17,21,15,23.83,7.26,31.57Z"/><polygon class="cls-1" points="31.71 14.37 31.71 7.04 23.75 15 21 12.25 28.96 4.29 21.6 4.29 21.6 0 31.71 0 36 0 36 4.29 36 14.37 31.71 14.37"/><path d="M14.82,107.57V112H0V97.19H4.43v7.55L12.17,97,15,99.83l-7.74,7.74Z"/><polygon points="31.71 90.37 31.71 83.04 23.75 91 21 88.25 28.96 80.29 21.6 80.29 21.6 76 31.71 76 36 76 36 80.29 36 90.37 31.71 90.37"/><polygon class="cls-1" points="75 32.2 77.8 35 95.3 17.5 77.8 0 75 2.8 89.7 17.5 75 32.2"/><polygon class="cls-1" points="68.3 2.8 65.5 0 48 17.5 65.5 35 68.3 32.2 53.6 17.5 68.3 2.8"/><polygon class="cls-2" points="119.67 0 105.92 0 105.92 5.33 116 5.33 105 16.33 108.67 20 119.67 8.99 119.67 18.92 125 18.92 125 5.33 125 0 119.67 0"/><polygon class="cls-3" points="144.67 0 130.92 0 130.92 5.33 141 5.33 130 16.33 133.66 20 144.67 8.99 144.67 18.92 150 18.92 150 5.33 150 0 144.67 0"/><rect class="cls-1" x="96" y="54.9" width="17" height="4"/><rect class="cls-1" x="102.47" y="48.42" width="4" height="17"/><polygon class="cls-4" points="263.9 0 263.9 5.3 274 5.3 263 16.3 266.7 20 277.7 9 277.7 18.9 283 18.9 283 5.3 283 0 263.9 0"/><polygon class="cls-5" points="237.9 0 237.9 5.3 248 5.3 237 16.3 240.7 20 251.7 9 251.7 18.9 257 18.9 257 5.3 257 0 237.9 0"/><polygon class="cls-6" points="211.9 0 211.9 5.3 222 5.3 211 16.3 214.7 20 225.7 9 225.7 18.9 231 18.9 231 5.3 231 0 211.9 0"/><polygon class="cls-7" points="185.9 0 185.9 5.3 196 5.3 185 16.3 188.7 20 199.7 9 199.7 18.9 205 18.9 205 5.3 205 0 185.9 0"/><polygon class="cls-8" points="158.9 0 158.9 5.3 169 5.3 158 16.3 161.7 20 172.7 9 172.7 18.9 178 18.9 178 5.3 178 0 158.9 0"/><path class="cls-1" d="M11.5,59.2l8.7-7a1.49,1.49,0,0,0-.9-.2H3.8a2.92,2.92,0,0,0-.9.2Z"/><path class="cls-1" d="M11.8,60.1a.64.64,0,0,1-.6,0L2.3,52.9a1.22,1.22,0,0,0-.3.9v9.5a1.79,1.79,0,0,0,1.8,1.8H19.3a1.79,1.79,0,0,0,1.8-1.8V53.8a2.92,2.92,0,0,0-.2-.9Z"/><polygon class="cls-1" points="33.2 54 37.5 54 37.6 65.2 33.3 65.2 33.2 54"/><path class="cls-1" d="M39.3,54h4.3v1.2A5.48,5.48,0,0,1,46.8,54c1.6.1,4.5.7,4.5,5.4v5.8H47V60.6c0-1.3-.3-3.2-1.7-3.1s-1.7,1.6-1.7,3.1v4.6H39.3Z"/><path class="cls-1" d="M35.4,48.1a2.1,2.1,0,1,1-2.1,2.1,2.1,2.1,0,0,1,2.1-2.1"/><path class="cls-1" d="M78.6,46.5H83a.47.47,0,0,1,.4.6l-6.9,12,4.3,7.7c.1.3,0,.6-.3.6H76a.55.55,0,0,1-.6-.4l-4.3-7.4a.75.75,0,0,1,0-.9l6.8-11.9a.78.78,0,0,1,.7-.3"/><path class="cls-1" d="M63.8,50l4.4-.1a.52.52,0,0,1,.4.2l2.6,4.7a.64.64,0,0,1,0,.6L67.8,61a.52.52,0,0,1-.4.2H62.9a.48.48,0,0,1-.4-.7L66,54.9l-2.6-4.5c-.1-.1.1-.4.4-.4"/><path class="cls-1" d="M173,64.5a.5.5,0,0,0,.5.5h23a.5.5,0,0,0,.5-.5V49H173Z"/><path class="cls-1" d="M196.5,43H193V41.5a.5.5,0,0,0-.5-.5h-3a.5.5,0,0,0-.5.5V43h-8V41.5a.5.5,0,0,0-.5-.5h-3a.5.5,0,0,0-.5.5V43h-3.5a.5.5,0,0,0-.5.5V48h24V43.5A.5.5,0,0,0,196.5,43ZM180,45h-2V42h2Zm12,0h-2V42h2Z"/><polygon class="cls-1" points="124.88 53.21 129.32 57.66 129.32 48 132.66 48 132.66 57.66 137.12 53.2 139.72 55.8 133.59 61.93 130.99 64.53 128.39 61.93 122.28 55.81 124.88 53.21"/><path class="cls-9" d="M122,65V64h18v1Z"/><polygon points="148.88 53.21 153.32 57.66 153.32 48 156.66 48 156.66 57.66 161.12 53.2 163.72 55.8 157.59 61.93 154.99 64.53 152.39 61.93 146.28 55.81 148.88 53.21"/><path class="cls-10" d="M146,65V64h18v1Z"/><path d="M205,64.5a.5.5,0,0,0,.5.5h23a.5.5,0,0,0,.5-.5V49H205Z"/><path d="M228.5,43H225V41.5a.5.5,0,0,0-.5-.5h-3a.5.5,0,0,0-.5.5V43h-8V41.5a.5.5,0,0,0-.5-.5h-3a.5.5,0,0,0-.5.5V43h-3.5a.5.5,0,0,0-.5.5V48h24V43.5A.5.5,0,0,0,228.5,43ZM212,45h-2V42h2Zm12,0h-2V42h2Z"/><polygon class="cls-1" points="237 42 247 48.5 237 55 237 42"/><path id="magnifier-icon" class="cls-1" d="M322,28.38l-8.29-8.25a14.46,14.46,0,0,0,2-7.39A12.74,12.74,0,0,0,302.8,0,13,13,0,0,0,290,12.74a12.82,12.82,0,0,0,12.8,12.89,16.2,16.2,0,0,0,7.42-2l8.43,8.4ZM293.64,12.89A9.16,9.16,0,0,1,312,12.31a9.16,9.16,0,0,1-18.32.58Z"/><path id="magnifier-icon-2" data-name="magnifier-icon" d="M358,28.38l-8.29-8.25a14.46,14.46,0,0,0,2-7.39A12.74,12.74,0,0,0,338.8,0,13,13,0,0,0,326,12.74a12.82,12.82,0,0,0,12.8,12.89,16.2,16.2,0,0,0,7.42-2l8.43,8.4ZM329.64,12.89A9.16,9.16,0,0,1,348,12.31a9.16,9.16,0,0,1-18.32.58Z"/><polygon class="cls-11" points="290.96 54.11 279.55 65.21 279.55 41 271.25 41 271.25 65.22 260.04 54.32 254 60.2 275.39 81 297 59.98 290.96 54.11"/><g id="_Gruppe_" data-name="&lt;Gruppe&gt;"><path id="_Pfad_" data-name="&lt;Pfad&gt;" class="cls-11" d="M30.16,265.35l-2.83,2.82c1.69,1.69,3.46,3.33,5.27,4.86a89.68,89.68,0,0,0,8.1,6.14l2.23-3.31A85.16,85.16,0,0,1,35.18,270C33.46,268.53,31.77,267,30.16,265.35Z"/><path id="_Pfad_2" data-name="&lt;Pfad&gt;" class="cls-11" d="M49.44,284.39a110.17,110.17,0,0,0,15.85,6.79l1.29-3.77a106.6,106.6,0,0,1-15.28-6.55Z"/><path id="_Pfad_3" data-name="&lt;Pfad&gt;" class="cls-11" d="M102.21,294.6l-.37,4c4.12.37,8.45.65,12.87.8q2.1.08,4.2.12l.09-4q-2.07,0-4.14-.12C110.51,295.24,106.25,295,102.21,294.6Z"/><path id="_Pfad_4" data-name="&lt;Pfad&gt;" class="cls-11" d="M75,294.07a155.36,155.36,0,0,0,16.84,3.33l.56-3.95A152.75,152.75,0,0,1,76,290.21Z"/><path id="_Pfad_5" data-name="&lt;Pfad&gt;" class="cls-11" d="M128.91,295.59l0,4c5.11,0,10.68-.17,17-.42l-.15-4C139.5,295.42,134,295.55,128.91,295.59Z"/><path id="_Pfad_6" data-name="&lt;Pfad&gt;" class="cls-11" d="M331.31,368.79a90.39,90.39,0,0,0-6.42-16.07l-3.55,1.83a86.52,86.52,0,0,1,6.14,15.36Z"/><path id="_Pfad_7" data-name="&lt;Pfad&gt;" class="cls-11" d="M10.92,246.25a107.44,107.44,0,0,0,9.63,14.32l3.11-2.49a103.29,103.29,0,0,1-9.26-13.79Z"/><path id="_Pfad_8" data-name="&lt;Pfad&gt;" class="cls-11" d="M0,221.27a156,156,0,0,0,6.31,16l3.62-1.67A153.76,153.76,0,0,1,3.78,220Z"/><path id="_Pfad_9" data-name="&lt;Pfad&gt;" class="cls-11" d="M262.15,305a111.71,111.71,0,0,1,15.44,6.2l1.77-3.57a115.43,115.43,0,0,0-16-6.43Z"/><path id="_Pfad_10" data-name="&lt;Pfad&gt;" class="cls-11" d="M288.23,312.65,286.1,316a85.76,85.76,0,0,1,8.4,6c1.62,1.32,3.22,2.69,4.74,4.08l2.69-3c-1.58-1.43-3.23-2.85-4.91-4.21A88,88,0,0,0,288.23,312.65Z"/><path id="_Pfad_11" data-name="&lt;Pfad&gt;" class="cls-11" d="M236.22,299.31a166.85,166.85,0,0,1,16.46,3.09l.94-3.88c-5.27-1.28-11-2.34-16.85-3.16Z"/><path id="_Pfad_12" data-name="&lt;Pfad&gt;" class="cls-11" d="M309.13,330.33,306.2,333a100.51,100.51,0,0,1,10.23,13.08l3.34-2.19A105.26,105.26,0,0,0,309.13,330.33Z"/><path id="_Pfad_13" data-name="&lt;Pfad&gt;" class="cls-11" d="M163.37,294.37l-7.63.37.19,4,7.64-.38,9.3-.45-.19-4Z"/><path id="_Pfad_14" data-name="&lt;Pfad&gt;" class="cls-11" d="M182.66,293.49l.15,4c6.25-.23,11.78-.35,16.88-.37v-4C194.53,293.14,189,293.26,182.66,293.49Z"/><path id="_Pfad_15" data-name="&lt;Pfad&gt;" class="cls-11" d="M209.71,293.24l-.1,4c2.46.07,4.9.16,7.27.29,3.27.17,6.48.4,9.52.68l.36-4c-3.09-.28-6.35-.51-9.67-.69C214.69,293.41,212.21,293.31,209.71,293.24Z"/><path id="_Pfad_16" data-name="&lt;Pfad&gt;" class="cls-11" d="M345.18,380.55,334.74,391a87.87,87.87,0,0,0-1.15-12.25l-3.94.66a83.22,83.22,0,0,1,1.1,11.5l-10.34-10.34-2.82,2.82,15.2,15.2L348,383.37Z"/></g><path id="magnifier-icon-3" data-name="magnifier-icon" class="cls-1" d="M396,119.05l-22.8-22.7c3.6-5.57,5.6-13.54,5.6-20.3a35,35,0,0,0-35.6-35c-19.2,0-34.8,15.92-35.2,35a35.26,35.26,0,0,0,35.2,35.43c6.4,0,15.2-2.39,20.4-5.57L386.8,129ZM318,76.44a25.21,25.21,0,1,1,24.4,24.29A25.4,25.4,0,0,1,318,76.44Z"/><polygon class="cls-1" points="45.6 80.21 50.05 84.66 50.05 75 53.38 75 53.38 84.66 57.84 80.19 60.45 82.8 54.31 88.93 51.71 91.53 49.11 88.93 43 82.81 45.6 80.21"/><polygon points="89.67 75 65.61 75 65.61 84.33 83.25 84.33 64 103.58 70.42 110 89.67 90.73 89.67 108.11 99 108.11 99 84.33 99 75 89.67 75"/><polygon class="cls-1" points="130.67 75 106.61 75 106.61 84.33 124.25 84.33 105 103.58 111.42 110 130.67 90.73 130.67 108.11 140 108.11 140 84.33 140 75 130.67 75"/><path class="cls-12" d="M45,120a45,45,0,1,0,45,45A45.05,45.05,0,0,0,45,120Z"/><path class="cls-1" d="M72.18,166l-39.37,22.5a1.92,1.92,0,0,1-.93.24A1.86,1.86,0,0,1,30,186.88v-45a1.91,1.91,0,0,1,.93-1.63,1.88,1.88,0,0,1,1.88,0l39.37,22.5a1.88,1.88,0,0,1,.95,1.63A1.9,1.9,0,0,1,72.18,166Z"/></svg>